<svg width="29" height="29" viewBox="0 0 29 29" fill="none" xmlns="http://www.w3.org/2000/svg">
<path d="M14.5 2.71875C12.1699 2.71875 9.89211 3.40971 7.95469 4.70425C6.01728 5.99879 4.50724 7.83877 3.61555 9.99151C2.72385 12.1443 2.49055 14.5131 2.94513 16.7984C3.39971 19.0837 4.52177 21.183 6.1694 22.8306C7.81704 24.4782 9.91626 25.6003 12.2016 26.0549C14.4869 26.5095 16.8558 26.2762 19.0085 25.3845C21.1612 24.4928 23.0012 22.9827 24.2958 21.0453C25.5903 19.1079 26.2813 16.8301 26.2813 14.5C26.2777 11.3765 25.0353 8.38201 22.8266 6.17337C20.618 3.96474 17.6235 2.72235 14.5 2.71875ZM24.4688 14.5C24.4695 15.4193 24.3426 16.3343 24.0915 17.2188H19.7291C20.007 15.4169 20.007 13.5831 19.7291 11.7812H24.0915C24.3426 12.6657 24.4695 13.5807 24.4688 14.5ZM11.5547 19.0312H17.4453C16.865 20.9328 15.8575 22.6764 14.5 24.1289C13.143 22.6761 12.1356 20.9325 11.5547 19.0312ZM11.1129 17.2188C10.8018 15.4196 10.8018 13.5804 11.1129 11.7812H17.8962C18.2073 13.5804 18.2073 15.4196 17.8962 17.2188H11.1129ZM4.53126 14.5C4.53047 13.5807 4.65742 12.6657 4.90848 11.7812H9.27094C8.99302 13.5831 8.99302 15.4169 9.27094 17.2188H4.90848C4.65742 16.3343 4.53047 15.4193 4.53126 14.5ZM17.4453 9.96875H11.5547C12.135 8.06722 13.1425 6.32357 14.5 4.87109C15.857 6.32395 16.8644 8.06748 17.4453 9.96875ZM23.3733 9.96875H19.3382C18.8297 8.1029 17.9725 6.35018 16.8121 4.80313C18.2142 5.13994 19.5269 5.77596 20.6601 6.66757C21.7934 7.55918 22.7205 8.68531 23.3779 9.96875H23.3733ZM12.1879 4.80313C11.0275 6.35018 10.1703 8.1029 9.66176 9.96875H5.62215C6.27949 8.68531 7.20658 7.55918 8.33987 6.66757C9.47316 5.77596 10.7858 5.13994 12.1879 4.80313ZM5.62215 19.0312H9.66176C10.1703 20.8971 11.0275 22.6498 12.1879 24.1969C10.7858 23.8601 9.47316 23.224 8.33987 22.3324C7.20658 21.4408 6.27949 20.3147 5.62215 19.0312ZM16.8121 24.1969C17.9725 22.6498 18.8297 20.8971 19.3382 19.0312H23.3779C22.7205 20.3147 21.7934 21.4408 20.6601 22.3324C19.5269 23.224 18.2142 23.8601 16.8121 24.1969Z" fill="white"/>
</svg>
