<svg width="184" height="183" viewBox="0 0 184 183" fill="none" xmlns="http://www.w3.org/2000/svg">
<g clip-path="url(#clip0_322_19)">
<path d="M0 0H184V183H0V0Z" fill="white"/>
<path d="M0 0H184V14.0728H0V0ZM0 28.1456H184V42.2184H0V28.1456ZM0 56.2912H184V70.364H0V56.2912ZM0 84.4368H184V98.5096H0V84.4368ZM0 112.636H184V126.709H0V112.636ZM0 140.782H184V154.854H0V140.782ZM0 168.927H184V183H0V168.927Z" fill="#D80027"/>
<path d="M0 0H92V98.5096H0V0Z" fill="#2E52B2"/>
<path d="M17.1446 74.3236L15.7099 67.4744L14.1318 74.3236H9.39728L13.2351 78.4438L11.8004 85.2929L15.7099 81.0657L19.5119 85.2929L18.0413 78.4438L21.9509 74.3236H17.1446ZM37.338 74.3236L35.8675 67.4744L34.361 74.3236H29.6265L33.4643 78.4438L32.0296 85.2929L35.8675 81.0657L39.7411 85.2929L38.3064 78.4438L42.1443 74.3236H37.338ZM57.6031 74.3236L56.0608 67.4744L54.6261 74.3236H49.784L53.7294 78.4438L52.223 85.2929L56.0608 81.0657L60.0062 85.2929L58.4998 78.4438L62.3376 74.3236H57.6031ZM77.7606 74.3236L76.3259 67.4744L74.8195 74.3236H70.0491L73.9228 78.4438L72.4881 85.2929L76.3259 81.0657L80.1996 85.2929L78.6573 78.4438L82.6027 74.3236H77.7606ZM35.8675 40.292L34.361 47.1411H29.6265L33.4643 51.3683L32.0296 58.1104L35.8675 53.9367L39.7411 58.1104L38.3064 51.3683L42.1443 47.1411H37.338L35.8675 40.292ZM15.7099 40.292L14.1318 47.1411H9.39728L13.2351 51.3683L11.8004 58.1104L15.7099 53.9367L19.5119 58.1104L18.0413 51.3683L21.9509 47.1411H17.1446L15.7099 40.292ZM56.0608 40.292L54.6261 47.1411H49.784L53.7294 51.3683L52.223 58.1104L56.0608 53.9367L60.0062 58.1104L58.4998 51.3683L62.3376 47.1411H57.6031L56.0608 40.292ZM76.3259 40.292L74.8195 47.1411H70.0491L73.9228 51.3683L72.4881 58.1104L76.3259 53.9367L80.1996 58.1104L78.6573 51.3683L82.6027 47.1411H77.7606L76.3259 40.292ZM15.7099 13.2166L14.1318 19.9587H9.39728L13.2351 24.1859L11.8004 30.9815L15.7099 26.7543L19.5119 30.9815L18.0413 24.1859L21.9509 19.9587H17.1446L15.7099 13.2166ZM35.8675 13.2166L34.361 19.9587H29.6265L33.4643 24.1859L32.0296 30.9815L35.8675 26.7543L39.7411 30.9815L38.3064 24.1859L42.1443 19.9587H37.338L35.8675 13.2166ZM56.0608 13.2166L54.6261 19.9587H49.784L53.7294 24.1859L52.223 30.9815L56.0608 26.7543L60.0062 30.9815L58.4998 24.1859L62.3376 19.9587H57.6031L56.0608 13.2166ZM76.3259 13.2166L74.8195 19.9587H70.0491L73.9228 24.1859L72.4881 30.9815L76.3259 26.7543L80.1996 30.9815L78.6573 24.1859L82.6027 19.9587H77.7606L76.3259 13.2166Z" fill="white"/>
</g>
<defs>
<clipPath id="clip0_322_19">
<rect width="184" height="183" fill="white"/>
</clipPath>
</defs>
</svg>
