<svg width="47" height="47" viewBox="0 0 47 47" fill="none" xmlns="http://www.w3.org/2000/svg">
<rect width="47" height="47" fill="#009B3A"/>
<path d="M6 10H42.66V37.26H6V10Z" fill="#009B3A"/>
<path d="M23.714 12L38.3566 24.0677L23.714 36.1275L9 24.0677L23.714 12Z" fill="#FEDF00"/>
<path d="M23.7455 30.817C26.9187 30.817 29.4911 27.9478 29.4911 24.4085C29.4911 20.8692 26.9187 18 23.7455 18C20.5724 18 18 20.8692 18 24.4085C18 27.9478 20.5724 30.817 23.7455 30.817Z" fill="white"/>
<path d="M20.8656 24.0179C19.8723 24.0179 18.9076 24.1853 18 24.4962C18.0429 27.9953 20.5941 30.817 23.7384 30.817C25.6822 30.817 27.4044 29.733 28.4406 28.083C26.6612 25.6121 23.9242 24.0179 20.8656 24.0179ZM29.3696 25.636C29.4339 25.2375 29.4768 24.8309 29.4768 24.4085C29.4768 20.8695 26.9042 18 23.7313 18C21.3659 18 19.3363 19.6021 18.4502 21.8738C19.2291 21.6984 20.0295 21.6028 20.8513 21.6028C24.1958 21.6108 27.2114 23.1571 29.3696 25.636Z" fill="#002776"/>
</svg>
