<svg width="557" height="300" viewBox="0 0 557 300" fill="none" xmlns="http://www.w3.org/2000/svg">
<path d="M36.9895 214.595L33.1612 217.81L36.3554 220.937L42.9158 219.06V215.534L36.9895 214.595Z" fill="#E5E5E5"/>
<path d="M36.9895 214.595L42.9158 215.534V209.619L36.9895 214.595Z" fill="#E5E5E5"/>
<path d="M33.1612 217.81L36.9895 214.595L28.5057 213.251L33.1612 217.81Z" fill="#E5E5E5"/>
<path d="M36.3554 220.937L33.1612 217.81L25.8589 223.941L36.3554 220.937Z" fill="#E5E5E5"/>
<path d="M42.9158 219.06L36.3554 220.937L42.9158 227.361V219.06Z" fill="#E5E5E5"/>
<path d="M42.9158 215.534V219.06L50.8458 216.791L42.9158 215.534Z" fill="#E5E5E5"/>
<path d="M111.982 269.32C115.188 270.145 117.705 272.509 119.61 276.099C121.836 280.295 121.326 286.321 119.144 291.141H127.896C120.241 280.955 106.311 233.298 100.303 210.742C97.1167 213.191 92.7451 213.744 88.0721 213.251C89.9631 226.224 95.8954 253.377 104.497 258.209C109.757 257.006 111.686 264.638 111.982 269.32Z" fill="#E5E5E5"/>
<path d="M111.982 198.395C108.585 191.212 93.2095 181.185 85.9466 177.07L85.4384 159.238C75.4966 160.459 56.2755 166.676 55.1562 170.907C52.1769 174.542 50.9659 178.293 50.8458 181.895C50.8409 182.044 50.8378 182.193 50.8365 182.342C50.7399 193.555 61.0179 203.205 61.0179 203.205C61.0179 203.205 75.6158 211.939 88.0721 213.251C92.7451 213.744 97.1167 213.191 100.303 210.742L111.982 198.395Z" fill="#E5E5E5"/>
<path fill-rule="evenodd" clip-rule="evenodd" d="M61.0179 203.205C61.0179 203.205 50.7399 193.555 50.8365 182.342C50.8378 182.193 50.8409 182.044 50.8458 181.895C41.538 191.096 17.8792 213.866 10.0538 229.036C-0.895662 250.261 -4.38104 273.526 16.4244 288.188C32.1964 299.304 72.7121 301.619 94.736 294.734C89.4868 292.437 87.4688 284.703 88.0721 277.438C88.799 268.683 93.5908 265.465 101.297 259.804C102.48 258.935 103.543 258.427 104.497 258.209C95.8954 253.377 89.9631 226.224 88.0721 213.251C75.6158 211.939 61.0179 203.205 61.0179 203.205ZM42.9158 209.619V215.534L50.8458 216.791L42.9158 219.06V227.361L36.3554 220.937L25.8589 223.941L33.1612 217.81L28.5057 213.251L36.9895 214.595L42.9158 209.619Z" fill="#E5E5E5"/>
<path d="M160.542 239.232C156.648 220.278 154.518 198.633 142.242 186.049C141.573 190.515 136.027 195.507 130.678 199.943C130.639 215.184 131.73 247.733 136.402 256.006C133.006 235.57 151.08 236.308 160.542 239.232Z" fill="#E5E5E5"/>
<path d="M136.402 256.006C131.73 247.733 130.639 215.184 130.678 199.943C129.996 200.509 129.317 201.065 128.652 201.611L128.648 201.614L128.645 201.616C124.727 204.828 121.287 207.649 120.476 209.619C121.486 234.952 126.636 286.722 139.159 291.141H162.912C148.876 291.141 139.39 267.718 136.402 256.006Z" fill="#E5E5E5"/>
<path d="M147.178 264.248C144.827 254.767 157.206 252.037 163.69 251.857C162.446 247.892 161.446 243.635 160.542 239.232C151.08 236.308 133.006 235.57 136.402 256.006C139.39 267.718 148.876 291.141 162.912 291.141C159.588 288.802 156.427 283.066 154.813 277.438C153.247 276.991 149.529 273.728 147.178 264.248Z" fill="#E5E5E5"/>
<path d="M111.982 198.395L120.476 209.619C121.287 207.649 124.727 204.828 128.645 201.616L128.648 201.614L128.652 201.611C129.317 201.065 129.996 200.509 130.678 199.943C136.027 195.507 141.573 190.515 142.242 186.049C147.671 172.691 135.202 167.397 130.678 162.983C129.306 165.971 127.687 168.671 125.785 170.907C123.237 186.629 115.521 195.784 111.982 198.395Z" fill="#E5E5E5"/>
<path fill-rule="evenodd" clip-rule="evenodd" d="M86.2923 158.193C86.5691 158.446 86.733 158.81 86.744 159.196L87.2296 176.233C90.9017 178.352 96.2499 181.731 101.174 185.459C103.79 187.44 106.307 189.534 108.396 191.604C109.975 193.17 111.358 194.768 112.348 196.332C115.955 193.008 122.259 184.485 124.497 170.674C124.539 170.417 124.649 170.178 124.813 169.984C126.615 167.866 128.171 165.282 129.503 162.38C129.683 161.987 130.029 161.707 130.435 161.626C130.841 161.545 131.26 161.672 131.564 161.968C132.368 162.752 133.436 163.562 134.689 164.512C135.084 164.811 135.497 165.124 135.926 165.455C137.661 166.792 139.567 168.355 141.165 170.241C142.771 172.136 144.105 174.401 144.641 177.152C145.135 179.685 144.93 182.522 143.779 185.717C149.772 192.182 153.297 200.736 155.79 209.869C157.539 216.274 158.809 223.093 160.048 229.747C160.63 232.867 161.204 235.951 161.818 238.939C162.718 243.32 163.706 247.524 164.93 251.423C165.881 254.455 166.97 257.289 168.262 259.865C168.413 259.893 168.563 259.924 168.712 259.959C172.506 260.829 175.376 263.554 177.455 267.473C178.439 269.326 178.674 271.554 178.478 273.805C178.281 276.068 177.639 278.465 176.747 280.764C174.974 285.333 172.115 289.762 169.387 292.196C168.285 293.18 167.047 293.651 165.75 293.613C164.616 293.58 163.531 293.161 162.533 292.522H119.948C118.939 294.532 117.636 296.341 116.092 297.719C113.483 300.047 110.338 299.393 107.657 297.641C105.926 296.508 104.236 294.841 102.712 292.908C100.513 294.125 97.9432 295.171 95.1064 296.058C83.8948 299.563 68.0912 300.703 53.1438 299.588C38.2424 298.477 23.8816 295.103 15.6998 289.337C4.95021 281.761 0.401952 271.872 0.0256745 261.124C-0.34735 250.468 3.37963 239.089 8.90697 228.375C12.9147 220.606 20.9031 211.001 28.9584 202.263C35.9848 194.642 43.152 187.585 47.9556 182.856C48.5282 182.292 49.0672 181.762 49.5685 181.267C49.8017 177.595 51.1042 173.823 54.0048 170.205C54.3076 169.413 54.9036 168.739 55.5324 168.182C56.2795 167.521 57.2466 166.875 58.3454 166.253C60.5477 165.007 63.4397 163.767 66.5664 162.637C72.8172 160.379 80.2011 158.491 85.2877 157.866C85.651 157.822 86.0155 157.94 86.2923 158.193ZM101.102 290.678C100.854 290.304 100.611 289.922 100.376 289.536C100.318 289.441 100.26 289.346 100.203 289.25C98.5046 286.405 97.1698 283.291 96.5127 280.44C96.4142 280.012 96.3298 279.586 96.2617 279.163C96.0272 277.709 95.9846 276.297 96.2207 275.027C96.2524 274.856 96.2893 274.688 96.3316 274.522C96.6987 273.056 97.4772 271.792 98.8536 270.989C103.21 268.448 107.095 267.346 110.501 267.668C110.243 265.811 109.744 263.793 108.947 262.205C108.422 261.159 107.813 260.393 107.145 259.946C106.514 259.523 105.758 259.333 104.773 259.558C104.031 259.728 103.126 260.142 102.043 260.938C101.791 261.122 101.544 261.304 101.3 261.483C97.7549 264.083 95.0239 266.086 93.0318 268.392C90.9742 270.773 89.7118 273.481 89.3733 277.558C89.0848 281.032 89.4293 284.572 90.4357 287.474C91.3799 290.196 92.8574 292.233 94.8282 293.262C97.1868 292.502 99.294 291.638 101.102 290.678ZM91.5356 294.216C89.9264 292.711 88.7624 290.671 87.983 288.424C86.8189 285.068 86.456 281.108 86.7709 277.317C87.1593 272.639 88.6563 269.361 91.1029 266.529C93.3029 263.983 96.2756 261.805 99.7197 259.28C99.8082 259.215 99.897 259.15 99.9861 259.085L56.0937 254.1C55.3764 254.018 54.8575 253.338 54.9345 252.579C55.0116 251.821 55.6555 251.273 56.3728 251.354L100.439 256.359C99.3508 255.014 98.3484 253.402 97.425 251.639C95.5744 248.105 93.9375 243.763 92.5268 239.213C89.8503 230.58 87.9405 221.044 86.9372 214.505C80.803 213.681 74.3356 211.249 69.3614 209.006C66.726 207.818 64.4852 206.672 62.9019 205.822C62.1099 205.397 61.4815 205.045 61.0495 204.799C60.8335 204.676 60.6665 204.579 60.5527 204.512C60.5198 204.493 60.4914 204.476 60.4675 204.462C60.4499 204.452 60.4348 204.443 60.4222 204.436L60.3878 204.415L60.3785 204.41L60.3758 204.408C60.3755 204.408 60.3745 204.407 61.0178 203.205C60.1504 204.238 60.1501 204.238 60.1497 204.237L60.1385 204.227L60.1119 204.201C60.0894 204.18 60.0574 204.149 60.0165 204.109C59.9349 204.029 59.8179 203.914 59.6705 203.764C59.376 203.464 58.9597 203.027 58.4625 202.469C57.4694 201.354 56.1468 199.748 54.8252 197.777C52.5878 194.44 50.2726 189.937 49.6764 184.936C44.8711 189.667 37.7812 196.65 30.8293 204.191C23.0715 212.606 15.5951 221.601 11.6424 228.863C14.6656 232.376 20.1503 236.473 26.5902 239.277C33.4658 242.271 41.2042 243.693 48.0004 241.572C48.6923 241.356 49.4188 241.773 49.6231 242.505C49.8274 243.236 49.4321 244.004 48.7403 244.22C41.1541 246.588 32.7663 244.953 25.5953 241.831C19.2911 239.086 13.7525 235.116 10.3317 231.418C5.40945 241.389 2.30699 251.615 2.6363 261.022C2.98134 270.878 7.09311 279.952 17.1489 287.039C24.7391 292.389 38.5222 295.73 53.3276 296.834C66.8431 297.841 80.9511 296.966 91.5356 294.216ZM61.0178 203.205L60.1497 204.237C60.2186 204.302 60.2944 204.359 60.3745 204.407L61.0178 203.205ZM61.7861 202.077C61.7958 202.083 61.8061 202.089 61.817 202.096C61.923 202.158 62.0819 202.25 62.2893 202.368C62.7043 202.604 63.3137 202.945 64.0849 203.359C65.628 204.188 67.8152 205.307 70.3863 206.466C75.5526 208.795 82.1715 211.242 88.2016 211.877C92.7033 212.352 96.6535 211.793 99.4542 209.686L110.357 198.161C109.539 196.787 108.255 195.25 106.609 193.619C104.632 191.66 102.214 189.643 99.6534 187.705C94.5318 183.827 88.9221 180.322 85.3295 178.287C84.9176 178.053 84.6551 177.605 84.641 177.111L84.1763 160.807C79.4043 161.55 72.9667 163.243 67.4113 165.25C64.3502 166.356 61.6056 167.541 59.5785 168.688C58.5625 169.263 57.7667 169.807 57.2096 170.3C56.6196 170.822 56.4461 171.158 56.4141 171.279C56.3622 171.475 56.2697 171.657 56.1434 171.811C53.3565 175.211 52.2606 178.662 52.1512 181.944C52.1511 181.947 52.151 181.951 52.1509 181.954C52.1465 182.088 52.1438 182.221 52.1426 182.354C52.098 187.534 54.4619 192.459 56.9566 196.18C58.1925 198.023 59.4333 199.531 60.3643 200.576C60.8292 201.098 61.2151 201.502 61.4823 201.774C61.6143 201.908 61.7172 202.01 61.7861 202.077ZM111.874 200.463L119.189 210.13C119.714 222.841 121.257 241.929 124.216 258.479C125.712 266.846 127.581 274.627 129.889 280.622C131.042 283.619 132.324 286.22 133.758 288.238C134.145 288.783 134.549 289.293 134.969 289.76H128.544C126.822 287.249 124.715 282.753 122.405 276.92C119.944 270.707 117.308 263.122 114.717 255.132C109.655 239.519 104.786 222.425 101.768 211.146L111.874 200.463ZM99.5172 212.877C96.6331 214.477 93.1773 214.942 89.6244 214.758C90.6375 221.163 92.4781 230.189 95.0093 238.353C96.3933 242.817 97.9705 246.979 99.7105 250.301C101.353 253.437 103.054 255.654 104.738 256.762C106.172 256.555 107.453 256.883 108.543 257.613C109.725 258.404 110.603 259.613 111.255 260.91C112.386 263.162 112.971 265.957 113.205 268.256C114.714 268.787 116.063 269.631 117.261 270.74C115.605 266.162 113.914 261.171 112.246 256.028C107.309 240.802 102.56 224.186 99.5172 212.877ZM122.328 283.577C122.218 285.673 121.786 287.787 121.107 289.76H125.411C124.432 288.083 123.398 285.987 122.328 283.577ZM139.385 289.76H154.324C150.447 287.201 147.133 283.133 144.419 278.718C139.871 271.32 136.723 262.497 135.186 256.545C133.932 254.226 132.987 250.495 132.245 246.144C131.476 241.63 130.899 236.26 130.471 230.699C129.715 220.863 129.421 210.353 129.377 202.764C127.434 204.356 125.657 205.816 124.26 207.119C122.966 208.325 122.157 209.257 121.795 209.918C122.313 222.546 123.847 241.547 126.783 257.966C128.266 266.261 130.097 273.835 132.308 279.581C133.414 282.455 134.597 284.82 135.846 286.579C137.038 288.256 138.226 289.291 139.385 289.76ZM120.387 207.291C120.987 206.544 121.736 205.79 122.532 205.048C124.014 203.666 125.88 202.136 127.819 200.546L127.845 200.525L127.847 200.523L127.85 200.521L127.851 200.519L127.855 200.516C128.52 199.972 129.194 199.418 129.872 198.857C132.543 196.641 135.203 194.336 137.272 192.052C139.379 189.727 140.684 187.623 140.952 185.833C140.969 185.72 140.999 185.609 141.042 185.504C142.311 182.381 142.496 179.833 142.082 177.709C141.666 175.572 140.618 173.734 139.22 172.084C137.814 170.425 136.094 169.002 134.387 167.687C134.017 167.401 133.642 167.117 133.269 166.835C132.516 166.264 131.773 165.702 131.099 165.151C129.916 167.491 128.56 169.65 127.008 171.53C124.577 185.958 117.881 195.008 113.83 198.626L120.387 207.291ZM131.983 200.614C131.98 208.225 132.251 219.765 133.075 230.475C133.499 235.991 134.068 241.263 134.816 245.654C134.903 246.165 134.992 246.661 135.083 247.142C135.35 245.884 135.743 244.743 136.253 243.713C137.801 240.583 140.332 238.652 143.208 237.56C148.102 235.701 154.151 236.199 158.824 237.334C158.353 234.946 157.904 232.538 157.455 230.127C156.229 223.538 154.998 216.926 153.28 210.635C150.971 202.178 147.835 194.533 142.816 188.665C142.012 190.502 140.675 192.289 139.158 193.962C137.087 196.249 134.505 198.51 131.983 200.614ZM159.434 240.338C154.866 239.049 148.73 238.397 144.092 240.159C141.691 241.071 139.749 242.604 138.568 244.993C137.382 247.39 136.876 250.824 137.678 255.707C139.154 261.465 142.219 270.071 146.609 277.213C150.113 282.913 154.286 287.405 158.974 289.066C158.313 288.198 157.688 287.246 157.107 286.244C155.746 283.895 154.583 281.189 153.753 278.48C152.691 277.933 151.449 276.804 150.235 275.044C148.701 272.821 147.123 269.469 145.915 264.598C145.243 261.889 145.611 259.548 146.743 257.611C147.849 255.721 149.611 254.338 151.541 253.327C154.769 251.638 158.757 250.842 161.931 250.575C160.976 247.298 160.169 243.857 159.434 240.338ZM162.767 253.282C159.713 253.474 155.747 254.208 152.7 255.802C151.019 256.682 149.722 257.77 148.965 259.064C148.236 260.311 147.938 261.866 148.442 263.898C149.585 268.507 151.041 271.527 152.345 273.417C152.458 273.58 152.569 273.735 152.679 273.88C152.426 272.256 152.329 270.684 152.431 269.25C152.613 266.701 153.462 264.263 155.56 263.039C159.102 260.973 162.333 259.858 165.248 259.686C164.317 257.656 163.499 255.511 162.767 253.282ZM156.822 265.457C155.857 266.02 155.19 267.298 155.036 269.458C154.885 271.584 155.264 274.254 156.063 277.037C156.839 279.744 157.989 282.477 159.335 284.802C160.694 287.147 162.196 288.978 163.636 289.991C164.456 290.569 165.19 290.834 165.823 290.853C166.425 290.87 167.048 290.669 167.702 290.086C170.028 288.01 172.671 283.991 174.33 279.716C175.154 277.592 175.71 275.468 175.877 273.552C176.045 271.626 175.811 270.019 175.177 268.824C173.347 265.376 171.018 263.314 168.158 262.658C166.89 262.366 165.464 262.339 163.867 262.631C163.539 262.691 163.203 262.765 162.861 262.852C161.773 263.129 160.611 263.547 159.371 264.12C158.556 264.497 157.706 264.941 156.822 265.457ZM98.8539 275.239C99.0848 274.351 99.5258 273.751 100.116 273.407C104.952 270.586 108.741 269.907 111.673 270.662C114.429 271.371 116.687 273.413 118.47 276.774C120.417 280.443 120.038 285.966 117.965 290.545C117.04 292.588 115.814 294.353 114.407 295.609C113.049 296.82 111.267 296.754 109.032 295.292C107.361 294.199 105.639 292.429 104.082 290.302C104.081 290.3 104.08 290.298 104.078 290.296C103.561 289.589 103.067 288.849 102.602 288.089C102.592 288.073 102.582 288.056 102.572 288.04C100.925 285.339 99.6512 282.391 99.0509 279.786C98.9662 279.418 98.8959 279.062 98.84 278.718C98.839 278.712 98.8379 278.706 98.8369 278.699C98.6034 277.251 98.6282 276.108 98.8539 275.239ZM43.4837 208.376C43.9352 208.606 44.222 209.09 44.222 209.619V214.345L51.0394 215.425C51.6507 215.522 52.1141 216.058 52.1498 216.711C52.1856 217.363 51.7838 217.953 51.1871 218.123L44.222 220.117V227.361C44.222 227.91 43.9145 228.406 43.4387 228.626C42.9629 228.846 42.4092 228.747 42.0282 228.374L35.9985 222.47L26.2002 225.274C25.6021 225.445 24.9725 225.148 24.693 224.564C24.4136 223.979 24.5613 223.267 25.0465 222.86L31.1568 217.729L27.6181 214.264C27.1976 213.853 27.0801 213.199 27.3283 212.653C27.5765 212.107 28.1325 211.796 28.6993 211.886L36.6216 213.141L42.1034 208.538C42.496 208.209 43.0323 208.146 43.4837 208.376ZM33.8237 215.49L32.5003 215.28L33.2265 215.991L33.8237 215.49ZM35.1656 217.89L37.3573 216.05L41.6096 216.724V218.003L36.7123 219.404L35.1656 217.89ZM33.0959 219.628L31.6297 220.859L33.7373 220.256L33.0959 219.628ZM38.9735 221.618L41.6096 224.2V220.864L38.9735 221.618ZM44.222 217.255L44.4876 217.179L44.222 217.137V217.255ZM41.6096 213.931L40.1553 213.701L41.6096 212.48V213.931Z" fill="black"/>
<path d="M137.464 126.561C131.094 127.309 116.441 126.561 108.797 117.582C107.735 125.064 101.577 138.683 85.4384 133.295C84.7845 137.996 84.6719 144.586 85.9466 151.254C88.1219 162.633 94.337 176.483 108.797 179.314C116.066 180.737 121.607 175.819 125.785 170.907C127.687 168.671 129.306 165.971 130.678 162.983C135.8 151.823 137.464 136.64 137.464 126.561Z" fill="white"/>
<path d="M85.4384 133.295C82.2532 133.669 75.8828 133.744 75.8828 140.03C75.8828 146.315 82.592 150.88 85.9466 151.254C84.6719 144.586 84.7845 137.996 85.4384 133.295Z" fill="white"/>
<path d="M108.797 179.314C94.337 176.483 88.1219 162.633 85.9466 151.254L85.4384 159.238L85.9466 177.069C93.2095 181.185 108.585 191.212 111.982 198.395C115.521 195.783 123.237 186.629 125.785 170.907C121.607 175.819 116.066 180.737 108.797 179.314Z" fill="white"/>
<path d="M103.045 291.141C106.851 296.344 111.783 299.757 115.249 296.664C116.824 295.258 118.155 293.323 119.144 291.141C121.326 286.321 121.836 280.295 119.61 276.098C117.705 272.509 115.188 270.145 111.982 269.32C108.609 268.452 104.472 269.289 99.4846 272.198C95.1027 274.754 98.139 284.434 103.045 291.141Z" fill="white"/>
<path d="M167.154 261.099C164.082 260.792 160.447 261.766 156.191 264.248C153.128 266.035 153.161 271.68 154.813 277.437C156.427 283.066 159.588 288.802 162.912 291.141C164.823 292.486 166.789 292.708 168.545 291.141C173.598 286.632 179.551 274.245 176.316 268.148C174.117 264.004 171.102 261.493 167.154 261.099Z" fill="white"/>
<path d="M156.191 264.248C160.572 261.693 164.296 260.736 167.424 261.129C165.949 258.302 164.733 255.183 163.69 251.857C157.206 252.037 144.827 254.767 147.178 264.248C149.529 273.728 153.247 276.991 154.813 277.437C153.161 271.68 153.128 266.035 156.191 264.248Z" fill="black"/>
<path d="M103.045 291.141C98.139 284.434 95.1027 274.754 99.4846 272.198C104.472 269.289 108.609 268.452 111.982 269.32C111.686 264.638 109.757 257.006 104.497 258.208C103.543 258.426 102.48 258.935 101.297 259.804C93.5908 265.465 88.799 268.683 88.0721 277.437C87.4688 284.703 89.4868 292.437 94.736 294.733C97.942 293.731 100.756 292.534 103.045 291.141Z" fill="black"/>
<path d="M108.797 117.582C116.441 126.561 131.094 127.309 137.464 126.561C162.946 118.48 163.307 109.409 154.813 98.9328C147.724 90.1901 137.464 86.9038 137.464 86.9038C137.464 86.9038 101.297 78.7274 94.736 103.236L94.7299 103.238C92.5971 103.99 84.5858 106.812 81.1915 113.092C77.794 119.377 82.6071 129.18 85.4384 133.295C101.577 138.683 107.735 125.064 108.797 117.582Z" fill="black"/>
<path fill-rule="evenodd" clip-rule="evenodd" d="M111.982 198.395L100.303 210.742C106.311 233.297 120.241 280.955 127.896 291.141H139.159C126.636 286.722 121.486 234.952 120.476 209.619L111.982 198.395Z" fill="black"/>
<path d="M36.9895 214.595L33.1612 217.81L36.3554 220.937L42.9158 219.06V215.534L36.9895 214.595Z" fill="black"/>
<path d="M36.9895 214.595L42.9158 215.534V209.619L36.9895 214.595Z" fill="black"/>
<path d="M33.1612 217.81L36.9895 214.595L28.5057 213.251L33.1612 217.81Z" fill="black"/>
<path d="M36.3554 220.937L33.1612 217.81L25.8589 223.941L36.3554 220.937Z" fill="black"/>
<path d="M42.9158 219.06L36.3554 220.937L42.9158 227.361V219.06Z" fill="black"/>
<path d="M42.9158 215.534V219.06L50.8458 216.79L42.9158 215.534Z" fill="black"/>
<path fill-rule="evenodd" clip-rule="evenodd" d="M118.688 87.2536C108.975 88.2577 99.0443 92.2141 95.9928 103.612C95.8751 104.052 95.5591 104.402 95.1489 104.546L95.1429 104.548C94.0888 104.92 91.6502 105.78 89.0689 107.299C86.4705 108.827 83.8536 110.95 82.3256 113.777C80.9025 116.41 81.1271 119.957 82.2235 123.588C83.24 126.954 84.9244 130.114 86.2453 132.113C93.6671 134.461 98.6168 132.499 101.877 129.259C105.29 125.867 107.003 120.916 107.505 117.377C107.58 116.849 107.937 116.413 108.421 116.259C108.905 116.106 109.43 116.261 109.768 116.658C113.331 120.844 118.601 123.183 123.88 124.369C129.079 125.536 134.131 125.548 137.204 125.202C143.464 123.21 148.12 121.178 151.461 119.116C154.831 117.036 156.766 114.985 157.716 113.018C159.528 109.261 158.034 105.028 153.821 99.8316C150.42 95.6372 146.236 92.7281 142.873 90.8627C141.197 89.9327 139.737 89.2691 138.701 88.8396C138.184 88.625 137.773 88.4692 137.495 88.3682C137.355 88.3176 137.25 88.2808 137.18 88.2572C137.163 88.2514 137.149 88.2464 137.136 88.2422L137.101 88.2345C137.037 88.2208 136.939 88.2003 136.811 88.1744C136.554 88.1225 136.173 88.0486 135.684 87.9627C134.704 87.7909 133.292 87.5713 131.576 87.3828C128.137 87.0052 123.504 86.7558 118.688 87.2536ZM137.464 86.904C137.843 85.5825 137.844 85.5826 137.844 85.5827L137.848 85.5839L137.856 85.5866L137.884 85.5957C137.907 85.6034 137.94 85.6144 137.982 85.6288C138.067 85.6576 138.188 85.7 138.344 85.7564C138.654 85.8692 139.1 86.0385 139.655 86.2686C140.764 86.7285 142.313 87.4329 144.087 88.4173C147.627 90.3807 152.117 93.4861 155.804 98.0343C160.085 103.314 162.658 108.854 160.043 114.272C158.779 116.892 156.378 119.279 152.778 121.501C149.346 123.619 144.737 125.64 138.765 127.586C138.659 137.456 137.024 151.686 132.283 162.622C132.967 163.207 133.779 163.823 134.689 164.512C135.084 164.811 135.497 165.124 135.926 165.455C137.661 166.792 139.567 168.355 141.165 170.241C142.771 172.136 144.105 174.401 144.641 177.152C145.135 179.685 144.93 182.522 143.779 185.717C149.772 192.182 153.297 200.736 155.79 209.869C157.539 216.274 158.809 223.093 160.048 229.747C160.63 232.867 161.204 235.951 161.818 238.939C162.718 243.32 163.706 247.524 164.93 251.423C165.881 254.455 166.97 257.289 168.262 259.865C168.413 259.893 168.563 259.925 168.712 259.959C172.506 260.829 175.376 263.554 177.455 267.473C178.439 269.326 178.674 271.554 178.478 273.806C178.281 276.068 177.639 278.465 176.747 280.764C174.974 285.333 172.115 289.762 169.387 292.196C168.285 293.18 167.047 293.651 165.75 293.613C164.616 293.58 163.531 293.161 162.533 292.522H119.948C118.939 294.532 117.636 296.341 116.092 297.719C113.483 300.048 110.338 299.393 107.657 297.641C105.926 296.508 104.236 294.841 102.712 292.908C100.513 294.125 97.9432 295.171 95.1064 296.058C83.8948 299.563 68.0912 300.703 53.1438 299.589C38.2424 298.477 23.8816 295.103 15.6998 289.337C4.95021 281.761 0.401952 271.872 0.0256745 261.124C-0.34735 250.469 3.37963 239.089 8.90697 228.375C12.9147 220.606 20.9031 211.001 28.9584 202.264C35.9847 194.642 43.1519 187.586 47.9555 182.856C48.5282 182.292 49.0672 181.762 49.5685 181.267C49.8015 177.598 51.1022 173.826 54.0048 170.205C54.3076 169.413 54.9036 168.739 55.5324 168.182C56.2795 167.521 57.2466 166.875 58.3454 166.253C60.5477 165.007 63.4397 163.767 66.5664 162.637C72.3875 160.534 79.1913 158.752 84.2072 158.013L84.5665 152.369C82.74 151.833 80.5923 150.588 78.788 148.89C76.5349 146.769 74.5765 143.711 74.5765 140.03C74.5765 138.196 75.047 136.709 75.8893 135.541C76.7196 134.39 77.837 133.653 78.9763 133.166C80.3252 132.589 81.8409 132.317 83.1481 132.154C81.9244 130.058 80.6104 127.327 79.7348 124.427C78.5662 120.557 78.083 116.06 80.0574 112.407C81.9236 108.955 85.0096 106.526 87.7986 104.886C90.1511 103.502 92.3822 102.627 93.6777 102.156C97.4029 89.5982 108.604 85.5212 118.434 84.5051C123.479 83.9835 128.298 84.2464 131.846 84.6359C133.622 84.831 135.087 85.0587 136.111 85.2383C136.623 85.3281 137.026 85.406 137.302 85.4619C137.44 85.4899 137.547 85.5123 137.62 85.528L137.705 85.5464L137.728 85.5515L137.736 85.5534C137.737 85.5536 137.738 85.5537 137.464 86.904ZM83.9367 134.843C82.6086 134.989 81.1968 135.196 79.9559 135.726C79.1045 136.09 78.4301 136.573 77.9665 137.216C77.5148 137.842 77.1889 138.721 77.1889 140.03C77.1889 142.634 78.5852 145.001 80.5253 146.828C81.7634 147.993 83.1259 148.846 84.2967 149.353C83.5061 144.058 83.522 138.935 83.9367 134.843ZM84.1763 160.807C79.4043 161.55 72.9667 163.243 67.4113 165.25C64.3502 166.357 61.6056 167.541 59.5785 168.688C58.5625 169.263 57.7667 169.807 57.2096 170.3C56.6196 170.822 56.4461 171.158 56.4141 171.279C56.3622 171.475 56.2697 171.657 56.1434 171.811C53.3597 175.208 52.2613 178.656 52.1513 181.941C52.1512 181.943 52.1512 181.945 52.1511 181.947C52.1466 182.083 52.1438 182.219 52.1426 182.354C52.113 185.796 53.1466 189.135 54.594 192.101C56.0394 195.063 57.8662 197.589 59.342 199.382C60.0777 200.275 60.7208 200.98 61.177 201.459C61.405 201.698 61.586 201.88 61.708 202.001C61.7376 202.03 61.7636 202.056 61.7861 202.078C61.7958 202.083 61.8061 202.089 61.817 202.096C61.923 202.158 62.0819 202.25 62.2893 202.368C62.7043 202.604 63.3137 202.945 64.0849 203.36C65.628 204.188 67.8152 205.307 70.3863 206.466C75.5526 208.796 82.1715 211.242 88.2016 211.877C92.7033 212.352 96.6535 211.793 99.4542 209.686L110.357 198.161C109.539 196.787 108.255 195.25 106.609 193.619C104.632 191.66 102.214 189.643 99.6534 187.705C94.5318 183.827 88.9221 180.322 85.3295 178.287C84.9176 178.053 84.6551 177.605 84.641 177.111L84.1763 160.807ZM111.874 200.463L119.189 210.13C119.714 222.841 121.257 241.929 124.216 258.479C125.712 266.846 127.581 274.627 129.889 280.622C131.042 283.619 132.324 286.22 133.758 288.238C134.145 288.783 134.549 289.293 134.969 289.76H128.544C126.822 287.249 124.715 282.753 122.405 276.92C119.944 270.707 117.308 263.122 114.717 255.132C109.655 239.519 104.786 222.425 101.768 211.146L111.874 200.463ZM99.5173 212.877C96.6331 214.477 93.1773 214.943 89.6244 214.759C90.6375 221.163 92.4781 230.189 95.0093 238.353C96.3933 242.817 97.9705 246.979 99.7105 250.301C101.353 253.437 103.054 255.654 104.738 256.762C106.172 256.555 107.453 256.883 108.543 257.613C109.725 258.404 110.603 259.613 111.255 260.91C112.386 263.162 112.971 265.957 113.205 268.256C114.714 268.787 116.063 269.631 117.261 270.741C115.605 266.162 113.914 261.171 112.246 256.028C107.309 240.802 102.56 224.186 99.5173 212.877ZM122.328 283.578C122.218 285.673 121.786 287.787 121.107 289.76H125.411C124.432 288.083 123.398 285.987 122.328 283.578ZM110.501 267.668C110.243 265.811 109.744 263.793 108.947 262.205C108.422 261.159 107.813 260.393 107.145 259.946C106.514 259.523 105.758 259.333 104.773 259.558C104.031 259.728 103.126 260.142 102.043 260.938C101.791 261.122 101.544 261.304 101.3 261.483C97.7548 264.083 95.0239 266.087 93.0318 268.392C90.9742 270.773 89.7118 273.481 89.3733 277.558C89.0848 281.032 89.4293 284.572 90.4357 287.474C91.3799 290.196 92.8574 292.233 94.8282 293.263C97.1868 292.502 99.294 291.638 101.102 290.678C100.854 290.304 100.611 289.923 100.376 289.536C100.376 289.536 100.376 289.536 100.376 289.536C100.318 289.441 100.26 289.346 100.203 289.25C98.5046 286.405 97.1698 283.291 96.5127 280.44C96.4142 280.013 96.3298 279.586 96.2617 279.163C96.0272 277.71 95.9846 276.297 96.2207 275.027C96.2524 274.856 96.2893 274.688 96.3317 274.521C96.6988 273.056 97.4773 271.792 98.8536 270.989C103.21 268.449 107.095 267.346 110.501 267.668ZM98.8538 275.24C99.0846 274.352 99.5257 273.751 100.116 273.407C104.952 270.586 108.741 269.907 111.673 270.662C114.429 271.371 116.687 273.413 118.47 276.774C120.417 280.443 120.038 285.967 117.965 290.545C117.04 292.588 115.814 294.353 114.407 295.609C113.049 296.821 111.267 296.754 109.032 295.292C107.361 294.199 105.639 292.429 104.082 290.302C104.081 290.3 104.08 290.298 104.078 290.296C103.561 289.589 103.067 288.849 102.602 288.089C102.592 288.073 102.582 288.056 102.572 288.04C100.925 285.339 99.6512 282.391 99.0509 279.786C98.9662 279.419 98.8959 279.062 98.84 278.719C98.6404 277.491 98.6238 276.422 98.7841 275.559C98.8046 275.449 98.8279 275.342 98.8538 275.24ZM91.5356 294.217C89.9264 292.711 88.7624 290.672 87.983 288.424C86.8189 285.068 86.456 281.109 86.7709 277.317C87.1593 272.64 88.6563 269.361 91.1029 266.53C93.3029 263.983 96.2756 261.805 99.7197 259.28C99.8082 259.216 99.897 259.15 99.9861 259.085L56.0937 254.1C55.3764 254.018 54.8575 253.338 54.9345 252.58C55.0116 251.821 55.6555 251.273 56.3728 251.354L100.439 256.359C99.3508 255.014 98.3484 253.402 97.425 251.639C95.5744 248.106 93.9375 243.763 92.5268 239.213C89.8503 230.58 87.9405 221.044 86.9372 214.505C80.803 213.681 74.3356 211.249 69.3614 209.007C66.726 207.818 64.4852 206.672 62.9019 205.822C62.1099 205.397 61.4815 205.045 61.0495 204.799C60.8335 204.676 60.6665 204.579 60.5527 204.512C60.4957 204.479 60.4521 204.453 60.4222 204.436L60.3878 204.415L60.3758 204.408C60.3755 204.408 60.3745 204.407 61.0178 203.206C60.1504 204.238 60.15 204.238 60.1495 204.237L60.1481 204.236L60.1441 204.232L60.1312 204.22L60.0862 204.177C60.0479 204.14 59.9931 204.087 59.9233 204.018C59.7838 203.88 59.5843 203.678 59.3369 203.419C58.8423 202.9 58.1548 202.146 57.3715 201.195C55.8092 199.297 53.8436 196.587 52.2723 193.368C51.046 190.855 50.0408 187.992 49.6764 184.936C44.8711 189.667 37.7812 196.65 30.8293 204.191C23.0715 212.606 15.5951 221.601 11.6424 228.864C14.6656 232.376 20.1503 236.473 26.5902 239.277C33.4658 242.271 41.2042 243.693 48.0004 241.572C48.6923 241.356 49.4188 241.773 49.6231 242.505C49.8274 243.236 49.4321 244.004 48.7403 244.22C41.1541 246.588 32.7663 244.953 25.5953 241.831C19.2911 239.086 13.7526 235.116 10.3317 231.418C5.40945 241.389 2.30699 251.615 2.6363 261.022C2.98134 270.878 7.09311 279.953 17.1489 287.039C24.7391 292.389 38.5222 295.73 53.3276 296.834C66.8431 297.841 80.9511 296.967 91.5356 294.217ZM61.0178 203.206L60.1495 204.237C60.2183 204.302 60.2944 204.359 60.3745 204.407L61.0178 203.206ZM139.385 289.76H154.324C150.447 287.201 147.133 283.133 144.419 278.718C139.871 271.32 136.723 262.497 135.186 256.545C133.932 254.226 132.987 250.495 132.245 246.144C131.476 241.63 130.899 236.26 130.471 230.699C129.715 220.863 129.421 210.353 129.377 202.764C127.434 204.356 125.657 205.816 124.26 207.119C122.966 208.325 122.157 209.257 121.795 209.918C122.313 222.546 123.847 241.547 126.783 257.966C128.266 266.261 130.097 273.835 132.308 279.581C133.414 282.455 134.597 284.821 135.846 286.579C137.038 288.256 138.226 289.291 139.385 289.76ZM120.387 207.291C120.987 206.544 121.736 205.79 122.532 205.048C124.014 203.666 125.879 202.136 127.819 200.546L127.845 200.525C128.512 199.978 129.191 199.422 129.872 198.857C132.543 196.641 135.203 194.336 137.272 192.052C139.379 189.727 140.684 187.624 140.952 185.833C140.969 185.72 140.999 185.609 141.042 185.504C142.311 182.381 142.496 179.834 142.082 177.709C141.666 175.572 140.618 173.734 139.22 172.084C137.814 170.425 136.094 169.002 134.387 167.687C134.017 167.401 133.642 167.117 133.269 166.835C132.516 166.264 131.773 165.702 131.099 165.151C129.916 167.491 128.56 169.65 127.008 171.53C124.577 185.958 117.881 195.008 113.83 198.627L120.387 207.291ZM112.348 196.332C115.54 193.39 120.845 186.376 123.574 175.228C119.698 178.912 114.731 181.88 108.559 180.672C96.6028 178.332 90.0773 168.87 86.748 159.336L87.2296 176.233C90.9017 178.352 96.2499 181.731 101.174 185.459C103.79 187.44 106.307 189.534 108.396 191.604C109.975 193.17 111.358 194.768 112.348 196.332ZM131.983 200.615C131.98 208.226 132.251 219.765 133.075 230.475C133.499 235.991 134.068 241.263 134.816 245.655C134.903 246.165 134.992 246.661 135.083 247.142C135.35 245.884 135.743 244.743 136.253 243.713C137.801 240.583 140.332 238.652 143.208 237.56C148.102 235.701 154.151 236.199 158.824 237.334C158.353 234.946 157.904 232.538 157.455 230.127C156.229 223.538 154.998 216.926 153.28 210.635C150.971 202.178 147.835 194.534 142.816 188.665C142.012 190.502 140.675 192.289 139.158 193.963C137.087 196.249 134.505 198.51 131.983 200.615ZM159.434 240.338C154.866 239.049 148.73 238.397 144.092 240.159C141.691 241.071 139.749 242.605 138.568 244.993C137.382 247.39 136.876 250.824 137.678 255.707C139.154 261.465 142.219 270.071 146.609 277.213C150.113 282.913 154.286 287.405 158.974 289.066C158.313 288.198 157.688 287.246 157.107 286.244C155.746 283.895 154.583 281.189 153.753 278.48C152.691 277.933 151.449 276.804 150.235 275.044C148.701 272.821 147.123 269.469 145.915 264.598C145.243 261.889 145.611 259.548 146.743 257.611C147.849 255.722 149.611 254.338 151.541 253.328C154.769 251.638 158.757 250.842 161.931 250.575C160.976 247.298 160.169 243.858 159.434 240.338ZM162.767 253.282C159.713 253.474 155.747 254.208 152.7 255.803C151.019 256.682 149.722 257.77 148.965 259.064C148.236 260.311 147.938 261.866 148.442 263.898C149.585 268.507 151.041 271.527 152.345 273.417C152.458 273.58 152.569 273.735 152.679 273.88C152.426 272.257 152.329 270.684 152.431 269.25C152.613 266.701 153.462 264.263 155.56 263.039C159.102 260.973 162.333 259.858 165.248 259.687C164.317 257.656 163.499 255.511 162.767 253.282ZM156.822 265.457C155.857 266.02 155.19 267.298 155.036 269.458C154.885 271.584 155.264 274.254 156.063 277.037C156.839 279.744 157.989 282.477 159.335 284.802C160.694 287.147 162.196 288.978 163.636 289.991C164.456 290.569 165.19 290.834 165.823 290.853C166.425 290.87 167.048 290.669 167.702 290.086C170.028 288.011 172.671 283.992 174.33 279.716C175.154 277.592 175.71 275.468 175.877 273.552C176.045 271.626 175.811 270.019 175.177 268.824C173.347 265.376 171.018 263.314 168.158 262.658C167.071 262.408 165.868 262.353 164.541 262.526C162.328 262.814 159.769 263.738 156.822 265.457ZM86.5413 135.068C86.0882 139.473 86.122 145.201 87.2269 150.981C89.3712 162.197 95.3907 175.286 109.035 177.957C115.558 179.234 120.658 174.87 124.813 169.984C126.615 167.866 128.171 165.282 129.503 162.38C134.255 152.025 135.987 138.005 136.146 128.068C132.826 128.298 128.144 128.149 123.337 127.07C118.54 125.993 113.499 123.962 109.584 120.336C108.684 123.912 106.836 128.121 103.666 131.271C99.8497 135.064 94.2508 137.183 86.5413 135.068ZM137.464 86.904L137.736 85.5534C137.772 85.5614 137.809 85.5716 137.844 85.5827L137.464 86.904ZM43.4837 208.376C43.9352 208.606 44.222 209.09 44.222 209.62V214.345L51.0394 215.425C51.6507 215.522 52.1141 216.058 52.1498 216.711C52.1856 217.363 51.7838 217.953 51.1871 218.123L44.222 220.117V227.361C44.222 227.91 43.9145 228.406 43.4387 228.626C42.9629 228.846 42.4092 228.747 42.0282 228.374L35.9985 222.47L26.2002 225.274C25.6021 225.445 24.9725 225.148 24.693 224.564C24.4136 223.979 24.5613 223.267 25.0465 222.86L31.1568 217.729L27.6181 214.264C27.1976 213.853 27.0801 213.199 27.3283 212.653C27.5765 212.107 28.1325 211.796 28.6993 211.886L36.6216 213.141L42.1034 208.538C42.496 208.209 43.0323 208.146 43.4837 208.376ZM33.8237 215.49L32.5003 215.281L33.2265 215.992L33.8237 215.49ZM35.1656 217.89L37.3573 216.05L41.6096 216.724V218.003L36.7123 219.405L35.1656 217.89ZM33.0959 219.628L31.6297 220.859L33.7373 220.256L33.0959 219.628ZM38.9735 221.619L41.6096 224.2V220.864L38.9735 221.619ZM44.222 217.256L44.4876 217.18L44.222 217.138V217.256ZM41.6096 213.931L40.1553 213.701L41.6096 212.48V213.931Z" fill="black"/>
<path fill-rule="evenodd" clip-rule="evenodd" d="M115.547 136.685C116.205 136.997 116.5 137.814 116.205 138.51L114.082 143.516C113.787 144.211 113.014 144.523 112.356 144.211C111.697 143.899 111.403 143.082 111.698 142.386L113.821 137.38C114.116 136.684 114.889 136.373 115.547 136.685ZM129.328 138.099C129.969 138.45 130.219 139.283 129.888 139.96L127.439 144.966C127.107 145.643 126.319 145.908 125.679 145.558C125.038 145.208 124.787 144.374 125.118 143.697L127.568 138.692C127.899 138.014 128.687 137.749 129.328 138.099ZM114.769 153.858C115.022 153.144 115.775 152.782 116.451 153.05L121.676 155.121C122.351 155.389 122.693 156.185 122.44 156.899C122.187 157.613 121.434 157.974 120.758 157.707L115.534 155.635C114.858 155.368 114.516 154.572 114.769 153.858ZM109.221 157.97C109.941 157.925 110.56 158.506 110.602 159.267C110.624 159.67 110.895 160.103 111.736 160.499C112.549 160.882 113.564 161.05 114.241 161.075C114.962 161.101 115.526 161.74 115.502 162.503C115.477 163.265 114.872 163.861 114.151 163.835C113.25 163.802 111.881 163.591 110.673 163.022C109.491 162.465 108.102 161.373 107.994 159.429C107.952 158.668 108.501 158.014 109.221 157.97Z" fill="black"/>
<path d="M217.605 215.623C217.313 212.38 219.725 209.576 222.806 209.576H244.806C247.284 209.576 249.422 211.417 249.923 213.983L259.035 260.667L264.747 289.929C265.416 293.356 262.94 296.568 259.63 296.568H229.648C226.955 296.568 224.702 294.403 224.447 291.569L217.605 215.623Z" fill="#C4C4C4"/>
<path d="M224.136 215.623C223.844 212.38 226.256 209.576 229.337 209.576H244.806C247.284 209.576 249.422 211.417 249.923 213.983L259.035 260.667L264.747 289.929C265.416 293.356 262.94 296.568 259.63 296.568H236.179C233.486 296.568 231.233 294.403 230.978 291.569L224.136 215.623Z" fill="#C4C4C4"/>
<path d="M224.447 291.569C224.702 294.403 226.955 296.568 229.648 296.568H206.774C204.159 296.568 202.039 294.327 202.039 291.563C202.039 288.798 204.159 286.557 206.774 286.557H223.996L224.447 291.569Z" fill="#C4C4C4"/>
<path d="M277.799 164.008H170.704C167.097 164.008 164.173 167.099 164.173 170.912V253.762C164.173 257.576 167.097 260.667 170.704 260.667H221.663L217.605 215.623C217.313 212.38 219.725 209.576 222.806 209.576H229.337H244.806C247.284 209.576 249.422 211.417 249.923 213.983L259.035 260.667H277.799C281.406 260.667 284.33 257.576 284.33 253.762V170.912C284.33 167.099 281.406 164.008 277.799 164.008Z" fill="#C4C4C4"/>
<path d="M164.173 253.762V170.912C164.173 167.099 167.097 164.008 170.704 164.008H163.506C159.899 164.008 156.975 167.099 156.975 170.912V253.762C156.975 257.576 159.899 260.667 163.506 260.667H170.704C167.097 260.667 164.173 257.576 164.173 253.762Z" fill="#C4C4C4"/>
<path fill-rule="evenodd" clip-rule="evenodd" d="M155.668 170.912C155.668 166.337 159.177 162.627 163.506 162.627H277.799C282.127 162.627 285.636 166.337 285.636 170.912V253.762C285.636 258.338 282.127 262.047 277.799 262.047H260.638L266.026 289.65C266.862 293.933 263.768 297.949 259.63 297.949H206.774C203.437 297.949 200.733 295.09 200.733 291.563C200.733 288.036 203.437 285.176 206.774 285.176H222.559L220.475 262.047H163.506C159.177 262.047 155.668 258.338 155.668 253.762V170.912ZM164.863 259.286H163.506C160.62 259.286 158.281 256.813 158.281 253.762V170.912C158.281 167.862 160.62 165.389 163.506 165.389H164.863C163.622 166.855 162.867 168.791 162.867 170.912V253.762C162.867 255.884 163.622 257.82 164.863 259.286ZM170.704 259.286H220.226L216.305 215.754C215.939 211.7 218.955 208.195 222.806 208.195H244.806C247.904 208.195 250.576 210.496 251.202 213.704L260.099 259.286H277.799C280.684 259.286 283.024 256.813 283.024 253.762V170.912C283.024 167.862 280.684 165.389 277.799 165.389H170.704C167.819 165.389 165.48 167.862 165.48 170.912V253.762C165.48 256.813 167.819 259.286 170.704 259.286ZM224.112 210.957H222.806C220.495 210.957 218.686 213.06 218.905 215.492L225.747 291.438C225.939 293.564 227.628 295.187 229.648 295.187H230.954C230.254 294.202 229.796 293.008 229.678 291.7L222.836 215.754C222.674 213.963 223.173 212.279 224.112 210.957ZM236.179 295.187C234.159 295.187 232.47 293.564 232.278 291.438L225.436 215.492C225.217 213.06 227.026 210.957 229.337 210.957H244.806C246.664 210.957 248.268 212.337 248.643 214.262L263.468 290.208C263.969 292.778 262.113 295.187 259.63 295.187H236.179ZM224.423 295.187C223.723 294.202 223.265 293.008 223.147 291.7L222.808 287.938H206.774C204.88 287.938 203.345 289.561 203.345 291.563C203.345 293.565 204.88 295.187 206.774 295.187H224.423Z" fill="black"/>
<path d="M168.545 291.141C166.789 292.708 164.823 292.486 162.912 291.141H139.159H127.896H119.144C118.178 293.274 116.884 295.171 115.355 296.568H193.222C194.665 296.568 195.834 295.332 195.834 293.807V289.319C195.834 287.794 194.665 286.557 193.222 286.557H172.311C171.102 288.425 169.796 290.024 168.545 291.141Z" fill="#C4C4C4"/>
<path fill-rule="evenodd" clip-rule="evenodd" d="M171.622 285.177H193.222C195.386 285.177 197.14 287.031 197.14 289.319V293.807C197.14 296.095 195.386 297.949 193.222 297.949H111.847L114.501 295.524C115.869 294.274 117.061 292.541 117.965 290.545C118.183 290.065 118.641 289.76 119.144 289.76H162.912C163.17 289.76 163.421 289.841 163.636 289.991C164.456 290.569 165.19 290.834 165.823 290.853C166.425 290.87 167.048 290.669 167.702 290.086C168.838 289.072 170.069 287.576 171.233 285.778L171.622 285.177ZM172.991 287.938C171.846 289.625 170.61 291.105 169.387 292.196C168.285 293.18 167.047 293.651 165.75 293.613C164.616 293.58 163.531 293.161 162.532 292.522H119.948C119.476 293.462 118.94 294.359 118.344 295.188H193.222C193.943 295.188 194.528 294.569 194.528 293.807V289.319C194.528 288.556 193.943 287.938 193.222 287.938H172.991Z" fill="black"/>
<path d="M435.444 111.305C444.734 104.966 447.923 94.5094 448.386 84.9453C450.039 94.5025 454.206 114.048 457.641 115.772C459.359 116.635 466.869 116.091 475.922 117.288C467.572 130.903 444.63 153.449 419.657 134.718C424.74 129.753 429.201 126.236 432.123 124.322L430.082 113.689C431.835 113.316 433.626 112.545 435.444 111.305Z" fill="white"/>
<path d="M401.069 83.8152C399.624 77.9728 398.447 65.1006 405.295 60.3506C415.808 64.5896 438.771 72.0372 446.515 67.9152C447.702 72.0183 448.709 78.2642 448.386 84.9453C447.923 94.5094 444.734 104.966 435.444 111.305C433.626 112.545 431.835 113.316 430.082 113.689C416.621 116.547 405.39 95.892 401.069 83.8152Z" fill="white"/>
<path d="M448.386 84.9453C448.709 78.2642 447.702 72.0183 446.515 67.9152C449.368 65.936 455.453 63.9473 456.965 71.8259C458.477 79.7046 451.876 83.8549 448.386 84.9453Z" fill="white"/>
<path d="M412.535 142.247L422.51 165.886C420.523 167.393 413.453 173.492 401.069 185.829C388.685 198.166 379.454 180.688 375.198 173.422L357.819 140.017C355.873 141.748 339.52 153.11 345.73 134.718C353.335 112.196 365.534 124.172 369.97 129.207L394.12 159.247L412.535 142.247Z" fill="white"/>
<path fill-rule="evenodd" clip-rule="evenodd" d="M437.506 13.0478C439.359 12.0417 441.827 11.7523 445.146 12.7869C448.525 13.84 450.07 15.29 450.645 16.7211C451.22 18.1524 450.968 19.9188 449.957 21.9612C447.987 25.9393 443.517 30.1745 439.791 32.9734C437.248 32.5053 434.41 32.432 431.249 32.8193C430.991 28.3803 431.379 22.5719 433.24 18.2307C434.244 15.8902 435.637 14.063 437.506 13.0478ZM429.221 33.1237C428.932 28.4791 429.303 22.1845 431.381 17.3395C432.504 14.7185 434.165 12.4356 436.573 11.1278C438.997 9.81087 442.028 9.56431 445.724 10.7163C449.36 11.8498 451.603 13.5846 452.525 15.8769C453.446 18.1689 452.904 20.6643 451.766 22.9624C449.836 26.8597 445.905 30.7869 442.399 33.6215C449.849 35.9853 454.135 42.0515 456.371 49.0157C458.783 56.5282 458.859 65.195 458 71.7962C458.758 76.0436 457.351 79.3317 455.299 81.6662C453.551 83.6547 451.332 84.9632 449.551 85.6692C450.395 90.408 451.766 97.1396 453.328 103.004C454.162 106.134 455.043 108.987 455.917 111.148C456.355 112.23 456.778 113.109 457.178 113.752C457.598 114.429 457.911 114.713 458.079 114.797C458.166 114.841 458.363 114.908 458.72 114.972C459.064 115.034 459.499 115.085 460.028 115.129C461.055 115.213 462.361 115.262 463.915 115.321L464.067 115.326C467.291 115.448 471.472 115.612 476.048 116.217C487.047 117.671 500.396 121.58 508.777 134.095C511.747 138.529 513.591 142.222 514.677 146.377C515.759 150.515 516.072 155.041 516.071 161.101C516.071 161.16 516.067 161.22 516.057 161.278L508.951 206.498C508.896 206.848 508.682 207.147 508.379 207.298C507.971 207.5 507.292 207.64 506.548 207.757C505.749 207.884 504.713 208.007 503.48 208.127C501.012 208.367 497.709 208.6 493.852 208.823C486.135 209.27 476.159 209.679 466.119 210.026C446.043 210.72 425.665 211.167 422.51 211.167C422.239 211.167 421.979 211.053 421.788 210.851C421.596 210.648 421.489 210.374 421.489 210.088L421.489 168.075C418.364 170.708 411.835 176.587 401.769 186.614C398.537 189.834 395.397 191.215 392.395 191.196C389.411 191.177 386.745 189.775 384.445 187.817C380.298 184.287 377.05 178.68 374.925 175.014C374.716 174.653 374.518 174.31 374.33 173.991C374.321 173.975 374.312 173.959 374.304 173.943L357.489 141.624C356.78 142.146 355.816 142.801 354.738 143.445C353.001 144.483 350.856 145.559 348.918 145.972C347.949 146.178 346.946 146.239 346.04 145.974C345.093 145.696 344.292 145.069 343.808 144.022C343.346 143.023 343.218 141.736 343.371 140.185C343.526 138.623 343.977 136.701 344.769 134.356C346.702 128.63 348.973 124.951 351.457 122.811C353.981 120.637 356.659 120.112 359.207 120.564C361.709 121.008 364.04 122.382 365.989 123.91C367.947 125.446 369.59 127.192 370.717 128.471C370.722 128.476 370.726 128.481 370.73 128.486C370.736 128.493 370.742 128.501 370.748 128.508L394.228 157.715L411.823 141.472C414.273 138.676 416.68 136.156 418.964 133.926C423.751 129.25 428.006 125.833 430.982 123.807L429.277 114.921C422.375 115.847 416.219 111.14 411.367 105.048C406.279 98.6602 402.361 90.4372 400.165 84.3386C396.319 78.8365 392.704 69.8157 394.446 60.5102C396.221 51.0369 403.471 41.6347 420.75 35.4359C423.792 34.3447 426.611 33.5853 429.221 33.1237ZM399.14 78.4517C396.788 73.5136 395.266 67.2486 396.45 60.9294C398.037 52.4555 404.565 43.5219 421.406 37.4802C424.719 36.2916 427.729 35.52 430.459 35.1046C434.053 34.5578 437.158 34.6295 439.834 35.1765C447.708 36.7858 452.149 42.5817 454.437 49.7095C456.265 55.4022 456.686 61.872 456.353 67.5055C456.186 67.2723 456.01 67.0562 455.824 66.8565C454.811 65.7661 453.591 65.2449 452.355 65.1012C449.979 64.825 447.531 65.933 446.007 66.9771C444.316 67.8565 441.671 68.1714 438.338 67.9906C435.01 67.8101 431.146 67.1461 427.164 66.2146C419.202 64.3523 410.882 61.4483 405.659 59.3423C405.353 59.2188 405.009 59.2583 404.735 59.4484C400.918 62.0961 399.446 66.9206 399.055 71.5781C398.859 73.9202 398.929 76.2904 399.14 78.4517ZM447.716 68.4104C449 67.6625 450.66 67.076 452.132 67.247C452.962 67.3436 453.726 67.6788 454.367 68.3694C455.02 69.0712 455.614 70.2131 455.965 72.0408C456.644 75.5825 455.517 78.2474 453.803 80.1967C452.505 81.6738 450.873 82.7292 449.459 83.3803C449.563 77.601 448.737 72.2502 447.716 68.4104ZM448.619 91.7042C449.388 95.5011 450.333 99.7255 451.362 103.589C452.206 106.755 453.114 109.71 454.039 111.997C454.501 113.138 454.979 114.145 455.471 114.937C455.943 115.697 456.512 116.4 457.203 116.747C457.544 116.919 457.959 117.025 458.376 117.1C458.808 117.178 459.312 117.235 459.87 117.281C460.941 117.369 462.285 117.419 463.811 117.477L463.994 117.484C466.816 117.59 470.308 117.728 474.137 118.157C469.858 124.635 462.579 132.618 453.583 137.159C444.241 141.874 433.052 142.887 421.294 134.599C425.944 130.152 429.985 126.993 432.661 125.239C433.024 125.001 433.208 124.55 433.123 124.107L431.279 114.496C432.843 114.041 434.419 113.289 435.998 112.212C443.489 107.1 447.136 99.4328 448.619 91.7042ZM419.749 136.102C432.338 145.188 444.461 144.155 454.463 139.107C464.306 134.139 472.1 125.294 476.424 118.445C487.107 119.94 499.389 123.812 507.111 135.342C509.997 139.652 511.706 143.117 512.709 146.952C513.711 150.785 514.026 155.055 514.029 161.012L507.042 205.476C506.83 205.523 506.565 205.572 506.246 205.623C505.502 205.74 504.509 205.859 503.293 205.977C500.862 206.214 497.589 206.445 493.74 206.668C486.046 207.113 476.088 207.522 466.052 207.869C447.523 208.509 428.765 208.938 423.531 209L423.531 165.886C423.531 165.734 423.501 165.584 423.442 165.446L413.743 142.46C415.796 140.139 417.815 138.016 419.749 136.102ZM412.166 144.021L421.244 165.536C418.555 167.708 411.651 173.804 400.369 185.043C397.409 187.992 394.751 189.053 392.407 189.037C390.044 189.022 387.814 187.914 385.726 186.136C381.874 182.857 378.812 177.581 376.658 173.87C376.458 173.525 376.265 173.193 376.08 172.878L359.115 140.269C360.857 138.689 362.541 137.038 364.032 135.488C364.434 135.07 364.439 134.387 364.044 133.962C363.649 133.537 363.002 133.531 362.6 133.949C360.96 135.653 359.084 137.481 357.161 139.191C356.739 139.567 355.409 140.565 353.734 141.566C352.052 142.571 350.132 143.511 348.514 143.856C347.705 144.028 347.059 144.032 346.586 143.893C346.155 143.767 345.85 143.522 345.643 143.075C345.415 142.581 345.269 141.751 345.402 140.41C345.534 139.08 345.931 137.334 346.692 135.081C348.561 129.546 350.666 126.277 352.747 124.485C354.788 122.727 356.863 122.338 358.869 122.693C360.922 123.058 362.949 124.214 364.772 125.644C366.578 127.059 368.117 128.689 369.207 129.925L393.316 159.913L395.758 163.501C396.087 163.985 396.725 164.095 397.183 163.747C397.641 163.399 397.745 162.725 397.415 162.241L395.492 159.414L412.166 144.021ZM445.849 69.3749C446.863 73.3438 447.654 78.9415 447.366 84.8904C446.912 94.267 443.799 104.319 434.89 110.398C433.168 111.573 431.496 112.288 429.881 112.631C423.729 113.937 417.903 109.903 412.929 103.658C408.01 97.4814 404.181 89.4464 402.043 83.4874C401.349 80.6529 400.723 76.1317 401.089 71.7688C401.443 67.5505 402.698 63.7318 405.438 61.5624C410.749 63.6758 418.893 66.491 426.723 68.3224C430.763 69.2675 434.749 69.9574 438.233 70.1465C441.125 70.3033 443.78 70.1231 445.849 69.3749Z" fill="black"/>
<path d="M405.295 60.3518C398.447 65.1018 399.624 77.974 401.069 83.8163C393.521 73.1307 386.957 48.6994 421.078 36.459C424.441 35.2525 427.512 34.4634 430.313 34.0372C434.001 33.4761 437.222 33.5443 440.028 34.1177C456.708 37.5269 458.705 58.7943 456.965 71.8271C455.453 63.9485 449.368 65.9372 446.515 67.9163C438.77 72.0384 415.808 64.5908 405.295 60.3518Z" fill="black"/>
<path d="M445.435 11.7525C459.465 16.1257 447.676 28.4848 440.028 34.1177C437.222 33.5443 434.001 33.4761 430.313 34.0372C429.507 24.7868 431.404 7.37933 445.435 11.7525Z" fill="black"/>
<path d="M507.944 134.719C509.876 137.637 515.05 149.038 515.05 161.102L507.944 206.322C503.96 208.304 428.782 210.088 422.509 210.088L422.509 165.887L412.535 142.248C414.979 139.457 417.38 136.943 419.657 134.719C444.629 153.45 467.572 130.904 475.921 117.289C486.834 118.732 495.563 124.323 507.944 134.719Z" fill="black"/>
<path fill-rule="evenodd" clip-rule="evenodd" d="M437.506 13.049C439.358 12.0429 441.827 11.7534 445.146 12.788C448.525 13.8411 450.07 15.2911 450.645 16.7223C451.22 18.1535 450.968 19.92 449.956 21.9623C447.986 25.9404 443.517 30.1757 439.791 32.9745C437.248 32.5064 434.41 32.4331 431.249 32.8205C430.99 28.3815 431.379 22.5731 433.24 18.2318C434.244 15.8913 435.637 14.0642 437.506 13.049ZM429.221 33.1249C428.932 28.4803 429.303 22.1856 431.38 17.3407C432.504 14.7196 434.165 12.4367 436.573 11.1289C438.997 9.81202 442.027 9.56546 445.723 10.7175C449.36 11.851 451.603 13.5858 452.524 15.878C453.446 18.17 452.904 20.6654 451.765 22.9636C449.835 26.8608 445.905 30.7881 442.399 33.6226C449.849 35.9865 454.135 42.0527 456.371 49.0169C458.783 56.5294 458.859 65.1961 458 71.7974C458.758 76.0448 457.351 79.3329 455.299 81.6674C453.551 83.6558 451.332 84.9644 449.551 85.6703C450.394 90.4091 451.765 97.1408 453.328 103.005C454.162 106.136 455.043 108.988 455.917 111.149C456.354 112.232 456.778 113.11 457.178 113.754C457.598 114.43 457.911 114.714 458.078 114.799C458.166 114.843 458.362 114.909 458.72 114.973C459.064 115.035 459.499 115.087 460.028 115.13C461.055 115.214 462.36 115.263 463.914 115.322L464.067 115.327C467.291 115.449 471.472 115.613 476.048 116.218C487.255 117.7 496.171 123.455 508.579 133.874C508.656 133.939 508.724 134.015 508.78 134.101C509.818 135.668 511.632 139.347 513.187 144.13C514.746 148.928 516.071 154.916 516.071 161.102C516.071 161.162 516.066 161.221 516.057 161.279L508.951 206.499C508.896 206.849 508.682 207.148 508.379 207.299C507.971 207.502 507.292 207.641 506.548 207.759C505.749 207.885 504.713 208.008 503.48 208.128C501.012 208.368 497.709 208.601 493.852 208.825C486.134 209.271 476.159 209.68 466.118 210.027C446.042 210.721 425.664 211.168 422.509 211.168C422.239 211.168 421.979 211.054 421.787 210.852C421.596 210.649 421.488 210.375 421.488 210.089L421.488 168.076C418.363 170.709 411.835 176.588 401.769 186.616C398.537 189.835 395.397 191.217 392.394 191.197C389.41 191.178 386.745 189.777 384.445 187.819C380.298 184.288 377.049 178.681 374.925 175.015C374.716 174.654 374.517 174.312 374.33 173.992C374.326 173.985 374.323 173.979 374.319 173.973C374.314 173.963 374.308 173.953 374.303 173.944L357.489 141.625C356.78 142.147 355.816 142.803 354.738 143.447C353 144.485 350.855 145.56 348.918 145.973C347.949 146.179 346.945 146.24 346.04 145.975C345.092 145.697 344.291 145.07 343.808 144.024C343.346 143.024 343.217 141.737 343.371 140.186C343.526 138.624 343.976 136.702 344.768 134.357C346.701 128.631 348.973 124.952 351.457 122.812C353.981 120.638 356.658 120.113 359.207 120.566C361.709 121.01 364.039 122.383 365.989 123.911C367.947 125.447 369.59 127.193 370.717 128.473C370.728 128.485 370.738 128.497 370.748 128.509L394.228 157.716L411.823 141.473C414.273 138.677 416.68 136.158 418.964 133.927C423.75 129.251 428.006 125.834 430.982 123.808L429.276 114.922C422.375 115.848 416.219 111.141 411.366 105.049C406.279 98.6614 402.361 90.4384 400.165 84.3397C396.319 78.8377 392.703 69.8169 394.446 60.5113C396.22 51.038 403.471 41.6358 420.75 35.4371C423.792 34.3458 426.611 33.5865 429.221 33.1249ZM399.14 78.4528C396.788 73.5148 395.266 67.2498 396.449 60.9306C398.036 52.4567 404.564 43.523 421.406 37.4813C424.719 36.2928 427.728 35.5211 430.458 35.1058C434.053 34.559 437.157 34.6306 439.834 35.1777C447.708 36.7869 452.149 42.5828 454.437 49.7106C456.265 55.4033 456.686 61.8731 456.352 67.5067C456.186 67.2735 456.009 67.0573 455.824 66.8577C454.81 65.7672 453.59 65.246 452.354 65.1024C449.979 64.8262 447.531 65.9342 446.007 66.9782C444.315 67.8577 441.671 68.1726 438.338 67.9917C435.01 67.8112 431.146 67.1472 427.164 66.2158C419.202 64.3535 410.882 61.4495 405.659 59.3435C405.352 59.22 405.009 59.2594 404.735 59.4495C400.918 62.0972 399.446 66.9218 399.055 71.5793C398.859 73.9214 398.928 76.2916 399.14 78.4528ZM447.716 68.4115C449 67.6637 450.66 67.0771 452.131 67.2482C452.962 67.3447 453.725 67.6799 454.367 68.3706C455.019 69.0723 455.614 70.2143 455.964 72.0419C456.644 75.5837 455.517 78.2486 453.803 80.1978C452.504 81.675 450.873 82.7303 449.459 83.3814C449.562 77.6021 448.737 72.2513 447.716 68.4115ZM448.619 91.7054C449.388 95.5022 450.333 99.7266 451.362 103.59C452.206 106.756 453.114 109.711 454.039 111.998C454.501 113.139 454.979 114.146 455.471 114.938C455.943 115.698 456.511 116.402 457.202 116.749C457.544 116.92 457.959 117.026 458.376 117.101C458.807 117.179 459.312 117.236 459.87 117.282C460.941 117.37 462.284 117.42 463.811 117.478L463.994 117.485C466.816 117.591 470.308 117.729 474.137 118.158C469.858 124.636 462.579 132.619 453.583 137.16C444.24 141.875 433.051 142.888 421.293 134.6C425.944 130.153 429.985 126.994 432.66 125.24C433.023 125.003 433.208 124.551 433.123 124.108L431.278 114.498C432.843 114.042 434.418 113.29 435.997 112.213C443.489 107.101 447.136 99.434 448.619 91.7054ZM419.749 136.103C432.338 145.189 444.461 144.156 454.463 139.108C464.305 134.141 472.098 125.297 476.422 118.448C486.718 119.976 495.143 125.36 507.189 135.464C508.105 136.897 509.785 140.308 511.256 144.832C512.759 149.457 514.017 155.167 514.029 161.014L507.042 205.477C506.83 205.524 506.565 205.573 506.246 205.624C505.502 205.741 504.509 205.86 503.293 205.978C500.862 206.215 497.589 206.446 493.74 206.669C486.045 207.114 476.087 207.523 466.052 207.87C447.523 208.51 428.765 208.939 423.53 209.001L423.53 165.887C423.53 165.735 423.5 165.586 423.442 165.447L413.743 142.461C415.796 140.14 417.815 138.018 419.749 136.103ZM412.166 144.022L421.244 165.537C418.555 167.709 411.65 173.806 400.369 185.045C397.409 187.993 394.751 189.054 392.407 189.039C390.044 189.023 387.814 187.915 385.726 186.137C381.874 182.858 378.811 177.582 376.658 173.872C376.457 173.526 376.265 173.194 376.08 172.879L359.115 140.27C360.857 138.69 362.541 137.039 364.032 135.489C364.434 135.071 364.439 134.388 364.044 133.963C363.649 133.538 363.002 133.532 362.6 133.95C360.96 135.654 359.083 137.482 357.161 139.193C356.738 139.569 355.409 140.566 353.733 141.567C352.052 142.572 350.132 143.512 348.514 143.857C347.705 144.029 347.059 144.033 346.585 143.895C346.155 143.768 345.849 143.523 345.643 143.076C345.414 142.582 345.269 141.752 345.402 140.411C345.534 139.081 345.931 137.335 346.691 135.083C348.561 129.547 350.666 126.278 352.747 124.486C354.787 122.728 356.863 122.339 358.869 122.695C360.922 123.059 362.949 124.216 364.772 125.645C366.577 127.061 368.117 128.69 369.207 129.926L393.315 159.914L395.758 163.503C396.087 163.987 396.725 164.097 397.183 163.748C397.64 163.4 397.744 162.726 397.415 162.242L395.491 159.416L412.166 144.022ZM445.849 69.3761C446.863 73.345 447.653 78.9427 447.366 84.8916C446.912 94.2681 443.799 104.321 434.89 110.399C433.168 111.574 431.495 112.289 429.88 112.632C423.729 113.938 417.903 109.904 412.929 103.659C408.009 97.4826 404.181 89.4476 402.043 83.4886C401.349 80.6541 400.723 76.1329 401.089 71.77C401.443 67.5516 402.698 63.7329 405.438 61.5636C410.749 63.677 418.893 66.4921 426.722 68.3235C430.763 69.2686 434.749 69.9586 438.233 70.1476C441.124 70.3045 443.78 70.1242 445.849 69.3761Z" fill="black"/>
<path d="M419.516 106.335C414.304 106.335 416.559 109.416 416.559 122.027C416.077 141.159 422.061 162.258 437.102 184.968C443.155 194.107 459.216 193.909 470.61 192.505C509.346 187.731 515.29 168.136 515.29 160.851C515.29 153.565 515.05 150.802 512.198 144.521C509.346 138.24 464.438 174.919 459.216 169.901C435.742 147.338 433.402 124.602 433.402 124.602C431.636 122.027 432.997 106.335 419.516 106.335Z" fill="white"/>
<path fill-rule="evenodd" clip-rule="evenodd" d="M427.76 107.983C425.762 106.301 423.087 105.256 419.516 105.256C418.185 105.256 417.005 105.435 416.18 106.204C415.325 107.001 415.109 108.18 415.063 109.409C415.022 110.491 415.112 111.875 415.219 113.541C415.236 113.797 415.252 114.058 415.269 114.327C415.398 116.376 415.537 118.901 415.538 122.013C415.052 141.416 421.129 162.732 436.265 185.587C439.539 190.53 445.425 192.828 451.711 193.759C458.033 194.695 464.996 194.283 470.728 193.577C490.244 191.172 501.648 185.015 508.183 178.399C514.719 171.782 516.311 164.776 516.311 160.851C516.311 157.212 516.253 154.609 515.818 152.113C515.379 149.597 514.566 147.241 513.119 144.054C512.754 143.251 512.06 142.873 511.343 142.759C510.663 142.65 509.88 142.757 509.074 142.966C507.447 143.388 505.354 144.332 502.995 145.577C498.335 148.037 492.371 151.817 486.367 155.624L486.071 155.812C479.942 159.697 473.787 163.591 468.84 166.203C466.362 167.512 464.238 168.471 462.601 168.954C461.781 169.195 461.134 169.301 460.654 169.294C460.167 169.288 459.972 169.168 459.903 169.102C448.283 157.933 441.91 146.738 438.442 138.358C436.707 134.166 435.699 130.677 435.125 128.246C434.838 127.03 434.66 126.079 434.554 125.437C434.501 125.116 434.466 124.873 434.445 124.712C434.434 124.632 434.427 124.573 434.423 124.534L434.418 124.493L434.417 124.485M434.417 124.484C434.398 124.298 434.333 124.12 434.229 123.968C434.136 123.833 434 123.493 433.842 122.818C433.708 122.243 433.582 121.549 433.436 120.737C433.42 120.646 433.403 120.553 433.386 120.459C433.055 118.628 432.624 116.336 431.803 114.111C430.981 111.88 429.744 109.652 427.76 107.983M432.418 124.976C432.42 124.988 432.421 125 432.423 125.013C432.447 125.196 432.486 125.463 432.542 125.808C432.656 126.498 432.844 127.5 433.144 128.768C433.742 131.305 434.786 134.91 436.571 139.223C440.142 147.851 446.675 159.305 458.53 170.699C459.113 171.26 459.882 171.442 460.627 171.453C461.38 171.463 462.236 171.302 463.149 171.033C464.978 170.494 467.242 169.461 469.753 168.135C474.785 165.477 481.014 161.535 487.121 157.663L487.362 157.511C493.41 153.676 499.319 149.93 503.907 147.508C506.241 146.276 508.165 145.424 509.56 145.062C510.265 144.88 510.745 144.847 511.038 144.893C511.176 144.915 511.238 144.95 511.257 144.963C511.268 144.97 511.271 144.973 511.278 144.988C512.682 148.082 513.416 150.247 513.81 152.505C514.207 154.782 514.269 157.203 514.269 160.851C514.269 164.21 512.89 170.645 506.77 176.84C500.649 183.037 489.713 189.064 470.492 191.433C464.83 192.13 458.066 192.52 451.995 191.621C445.888 190.717 440.717 188.545 437.938 184.349C422.997 161.79 417.104 140.913 417.58 122.056C417.58 122.046 417.58 122.036 417.58 122.027C417.58 118.839 417.437 116.255 417.307 114.183C417.29 113.909 417.273 113.646 417.256 113.392C417.148 111.699 417.068 110.451 417.103 109.495C417.145 108.377 417.343 107.998 417.53 107.823C417.748 107.62 418.241 107.415 419.516 107.415C422.685 107.415 424.896 108.331 426.489 109.672C428.097 111.025 429.158 112.881 429.901 114.895C430.646 116.915 431.048 119.029 431.38 120.864C431.397 120.959 431.414 121.054 431.431 121.148C431.575 121.944 431.711 122.701 431.86 123.337C431.993 123.905 432.161 124.499 432.418 124.976Z" fill="black"/>
<path fill-rule="evenodd" clip-rule="evenodd" d="M421.689 81.4478C421.497 82.0083 421.771 82.6272 422.301 82.8301L424.769 83.7748C425.3 83.9778 425.885 83.6879 426.077 83.1274C426.269 82.5669 425.995 81.948 425.465 81.745L422.996 80.8004C422.466 80.5974 421.881 80.8873 421.689 81.4478ZM405.605 87.7554C405.286 88.2468 405.404 88.9187 405.869 89.2562L408.526 91.1857C408.991 91.5232 409.627 91.3985 409.946 90.9071C410.265 90.4158 410.147 89.7438 409.682 89.4063L407.025 87.4768C406.56 87.1393 405.925 87.264 405.605 87.7554ZM415.213 92.1672C415.169 92.7615 415.589 93.281 416.151 93.3275L423.05 93.8984C423.612 93.9449 424.104 93.5008 424.148 92.9065C424.192 92.3122 423.772 91.7928 423.209 91.7462L416.31 91.1753C415.748 91.1288 415.257 91.5729 415.213 92.1672ZM430.103 94.9119C429.541 94.9571 429.119 95.4756 429.162 96.07C429.378 99.0687 428.552 100.341 427.768 100.896C426.904 101.507 425.73 101.514 424.87 101.269C424.325 101.114 423.765 101.454 423.618 102.03C423.471 102.606 423.794 103.198 424.338 103.353C425.53 103.693 427.377 103.77 428.904 102.69C430.511 101.552 431.447 99.3705 431.198 95.9064C431.156 95.312 430.665 94.8668 430.103 94.9119Z" fill="black"/>
<path fill-rule="evenodd" clip-rule="evenodd" d="M419.205 76.853C419.093 76.2688 418.554 75.8913 418.001 76.0098L410.548 77.6084C409.996 77.7269 409.639 78.2966 409.751 78.8808C409.863 79.465 410.402 79.8425 410.954 79.724L418.407 78.1254C418.96 78.0069 419.317 77.4372 419.205 76.853Z" fill="black"/>
<path fill-rule="evenodd" clip-rule="evenodd" d="M406.561 75.9373C408.507 77.7235 410.058 80.4822 410.696 83.8045C411.333 87.1267 410.922 90.3063 409.788 92.7532C408.655 95.1987 406.832 96.8616 404.635 97.333C402.437 97.8044 400.145 97.0241 398.2 95.2388C396.253 93.4526 394.703 90.6939 394.065 87.3716C393.427 84.0493 393.838 80.8698 394.972 78.4229C396.106 75.9774 397.928 74.3145 400.126 73.8431C402.324 73.3717 404.616 74.152 406.561 75.9373ZM407.9 74.3071C405.584 72.1819 402.667 71.0953 399.72 71.7275C396.773 72.3597 394.488 74.5619 393.138 77.4732C391.79 80.3833 391.344 84.0524 392.064 87.8009C392.783 91.5494 394.546 94.7447 396.861 96.869C399.177 98.9942 402.093 100.081 405.041 99.4486C407.988 98.8164 410.273 96.6142 411.622 93.7028C412.971 90.7928 413.416 87.1237 412.697 83.3752C411.978 79.6267 410.214 76.4314 407.9 74.3071Z" fill="black"/>
<path fill-rule="evenodd" clip-rule="evenodd" d="M426.387 64.1098C431.344 63.0466 436.61 67.2123 437.888 73.8714C439.166 80.5304 435.852 86.5365 430.896 87.5997C425.939 88.6629 420.672 84.4972 419.394 77.8382C418.116 71.1791 421.43 65.173 426.387 64.1098ZM439.89 73.4421C438.453 65.9597 432.343 60.6295 425.981 61.9942C419.619 63.3589 415.957 70.785 417.393 78.2674C418.829 85.7499 424.939 91.08 431.302 89.7153C437.664 88.3506 441.326 80.9245 439.89 73.4421Z" fill="black"/>
<path d="M371.785 109.692C372.234 108.788 371.905 107.669 371.049 107.194C370.193 106.72 369.135 107.068 368.686 107.972L345.125 155.41C344.675 156.315 345.005 157.433 345.86 157.908C346.716 158.383 347.774 158.035 348.223 157.13L371.785 109.692Z" fill="black"/>
<path d="M424.451 211.379C407.658 209.034 370.838 205.751 357.91 211.379C341.75 218.413 350.306 185.252 424.451 211.379Z" fill="white"/>
<path fill-rule="evenodd" clip-rule="evenodd" d="M352.939 213.394C354.355 213.616 356.183 213.298 358.299 212.377C361.377 211.037 365.971 210.196 371.478 209.751C376.961 209.308 383.261 209.263 389.701 209.468C402.579 209.877 415.947 211.28 424.318 212.449C424.839 212.522 425.328 212.163 425.446 211.621C425.564 211.079 425.274 210.531 424.774 210.355C387.615 197.261 366.649 198.928 356.923 203.223C354.486 204.299 352.711 205.56 351.569 206.841C350.456 208.091 349.814 209.525 350.061 210.876C350.327 212.338 351.512 213.171 352.939 213.394ZM413.779 209.003C383.275 199.751 365.876 201.609 357.71 205.215C355.452 206.212 353.946 207.322 353.056 208.321C352.138 209.352 352 210.108 352.066 210.468C352.111 210.718 352.329 211.117 353.238 211.259C354.158 211.403 355.597 211.218 357.522 210.381C360.907 208.907 365.764 208.048 371.322 207.599C376.903 207.148 383.281 207.104 389.762 207.31C398.051 207.574 406.536 208.245 413.779 209.003Z" fill="black"/>
<path d="M530.646 34.187C544.637 34.187 555.979 46.0132 555.979 60.6015C555.979 75.1898 544.637 87.016 530.646 87.016H521.321C520.561 87.016 519.876 87.479 519.529 88.1834C516.476 94.3778 511.512 99.3797 505.449 102.343C504.012 103.045 502.39 101.542 502.573 99.8974C502.94 96.6033 503.185 92.2287 503.296 89.0829C503.336 87.9465 502.455 87.0236 501.368 86.9352C488.31 85.8737 478.031 74.4892 478.031 60.6015C478.031 46.0132 489.373 34.187 503.364 34.187H530.646Z" fill="#E5E5E5"/>
<path fill-rule="evenodd" clip-rule="evenodd" d="M530.646 35.2661C544.086 35.2661 554.958 46.623 554.958 60.6013C554.958 74.5795 544.086 85.9364 530.646 85.9364H521.321C520.162 85.9364 519.138 86.6407 518.623 87.6845C515.676 93.6657 510.88 98.4993 505.021 101.363C504.73 101.505 504.38 101.454 504.056 101.169C503.722 100.877 503.541 100.435 503.587 100.024C503.959 96.6882 504.205 92.2811 504.316 89.1229C504.379 87.3288 503.002 85.9853 501.446 85.8588C488.904 84.8392 479.052 73.9082 479.052 60.6013C479.052 46.623 489.924 35.2661 503.364 35.2661H530.646ZM557 60.6013C557 45.4029 545.188 33.1074 530.646 33.1074H503.364C488.822 33.1074 477.01 45.4029 477.01 60.6013C477.01 75.0698 487.715 86.9077 501.289 88.0111C501.907 88.0614 502.292 88.5638 502.275 89.0425C502.165 92.1758 501.922 96.518 501.559 99.7709C501.422 101.004 501.96 102.136 502.751 102.83C503.551 103.532 504.731 103.883 505.878 103.322C512.144 100.26 517.277 95.0893 520.434 88.6819C520.614 88.3169 520.96 88.0951 521.321 88.0951H530.646C545.188 88.0951 557 75.7997 557 60.6013Z" fill="black"/>
<path fill-rule="evenodd" clip-rule="evenodd" d="M518.756 45.2104C521.337 46.9279 523.507 50.1943 524.827 53.0948C525.071 53.6321 525.681 53.8582 526.189 53.5999C526.697 53.3416 526.911 52.6967 526.667 52.1595C525.271 49.0891 522.889 45.4098 519.844 43.3835C518.303 42.358 516.548 41.728 514.651 41.8743C512.748 42.0211 510.825 42.9402 508.939 44.7786C506.937 46.7306 506.541 49.3631 507.124 51.8087C507.7 54.223 509.233 56.5276 511.217 58.0994C513.5 59.9078 515.464 61.8729 516.499 63.729C517.012 64.6486 517.258 65.4727 517.258 66.1924C517.257 66.8807 517.033 67.5606 516.441 68.2393C516.059 68.6775 516.085 69.3603 516.499 69.7645C516.914 70.1686 517.56 70.141 517.942 69.7028C518.86 68.6509 519.299 67.4571 519.3 66.1935C519.3 64.9614 518.885 63.7556 518.258 62.6326C517.015 60.4031 514.788 58.2312 512.442 56.372C510.79 55.0632 509.554 53.1641 509.105 51.2809C508.663 49.429 508.986 47.67 510.324 46.3655C511.944 44.7859 513.449 44.1315 514.8 44.0273C516.158 43.9225 517.484 44.364 518.756 45.2104ZM519.568 74.4291C519.004 74.4291 518.547 74.9124 518.547 75.5085V78.7772C518.547 79.3733 519.004 79.8565 519.568 79.8565C520.132 79.8565 520.589 79.3733 520.589 78.7772V75.5085C520.589 74.9124 520.132 74.4291 519.568 74.4291Z" fill="black"/>
</svg>
